PathFileType	4	(X/Y/Z)	Walking05.trc	
DataRate	CameraRate	NumFrames	NumMarkers	Units	OrigDataRate	OrigDataStartFrame	OrigNumFrames	
100.00	100.00	13	19	mm	100.00	385	98	
Frame#	Time	RPSI			LPSI			RASI			LASI			RTHI			RKNE			RHFB			RTUB			RSHN			RANK			RLCA			RSTL			RPCA			RCPG			RHEE			RP5M			RP1M			RD5M			RTOE			
		X1	Y1	Z1	X2	Y2	Z2	X3	Y3	Z3	X4	Y4	Z4	X5	Y5	Z5	X6	Y6	Z6	X7	Y7	Z7	X8	Y8	Z8	X9	Y9	Z9	X10	Y10	Z10	X11	Y11	Z11	X12	Y12	Z12	X13	Y13	Z13	X14	Y14	Z14	X15	Y15	Z15	X16	Y16	Z16	X17	Y17	Z17	X18	Y18	Z18	X19	Y19	Z19	

1	0.000	-796.64880	882.15784	166.70993	-806.76593	896.40814	75.01897	-598.40344	844.23932	205.05910	-627.44702	835.89685	-34.92796	-591.71875	544.89197	245.05463	-525.64917	422.41382	211.93593	-514.52972	383.60593	210.18869	-455.60596	397.96890	158.07954	-440.57883	325.02966	149.87590	-428.87097	58.00746	171.42903	-431.83798	32.75523	163.97253	-417.54150	39.61359	100.02821	-459.43192	48.47846	125.66164	-478.68658	27.54159	125.04989	-452.59845	10.38049	119.49014	-333.60028	32.76052	196.05095	-327.70432	90.95978	123.71346	-301.88699	43.54781	204.14000	-276.47925	77.94389	168.20946 
2	0.010	-780.16650	882.10986	167.07474	-789.07068	895.82922	75.24478	-580.89746	844.67767	205.72716	-609.25031	836.42017	-33.89297	-573.05103	544.99335	245.31639	-510.07449	420.61844	211.46227	-500.58682	381.34985	209.84575	-440.62238	395.43961	157.99612	-426.47787	321.82538	149.41531	-422.52380	55.99421	170.78484	-427.63098	31.97386	163.71513	-413.28668	38.11732	99.22528	-454.16440	48.54639	124.95613	-474.38965	30.48924	123.40302	-449.78946	12.12812	119.64093	-329.47992	25.92044	194.46240	-320.45575	83.45325	121.47517	-297.17834	34.56157	201.92639	-269.07605	67.20271	165.89209 
3	0.020	-763.05890	882.18359	167.60986	-771.43140	895.49377	75.35875	-563.83722	845.16382	206.68576	-590.61560	837.10297	-32.45574	-554.85474	545.48407	244.94518	-496.51920	419.37613	211.34698	-488.39682	379.71692	210.05750	-425.13376	395.32834	157.44231	-412.42905	320.52951	149.02228	-416.42224	57.30594	170.76787	-423.32965	32.89686	163.84068	-409.90869	37.68931	99.33054	-449.75888	50.60118	126.30336	-470.89252	34.26933	123.75375	-447.10416	14.38558	120.67566	-325.86069	20.76762	193.45819	-312.25604	76.47813	119.57117	-293.09064	27.09201	200.04521	-261.15375	56.93080	164.97667 
4	0.030	-745.74408	882.60852	168.32242	-754.15466	895.38239	75.22519	-547.15826	845.97559	208.21834	-571.82788	838.04999	-30.42187	-538.69427	546.79449	244.85725	-483.72256	420.11267	212.44388	-475.24893	380.68237	210.84842	-409.63953	396.04120	157.85799	-399.48154	321.40591	149.17210	-412.47635	57.26605	170.92227	-421.08304	33.82224	163.57645	-408.34604	37.65485	99.17870	-447.07584	52.21525	127.32723	-468.84296	36.01630	125.04643	-446.88580	15.57303	120.79733	-323.69745	16.23384	192.64844	-308.65271	71.31482	118.03288	-290.41565	21.21103	198.53806	-257.20496	49.69939	162.34120 
5	0.040	-728.53998	883.33344	168.95375	-737.39667	895.21863	74.91573	-530.91870	847.22168	209.89464	-553.22479	838.86908	-27.99139	-524.89349	548.74152	245.98866	-468.95599	423.03851	214.39731	-460.21811	383.99826	212.54594	-394.94421	396.63962	159.05276	-387.54663	322.47647	149.48315	-410.01791	57.30223	171.09445	-419.27786	33.95045	163.92795	-407.16241	37.71033	99.38222	-444.88742	53.39888	127.65263	-467.37189	37.81937	126.05132	-446.25159	16.74048	121.29061	-322.96045	12.80593	192.96634	-306.20175	67.52953	117.38175	-288.58484	16.85853	198.20358	-255.24312	43.42035	160.35910 
6	0.050	-712.12769	884.72870	169.01546	-721.08911	894.88397	74.28224	-514.75452	849.23944	211.39972	-534.93060	839.43225	-25.38290	-511.18826	550.59277	248.42415	-452.66119	426.91406	216.42003	-444.36530	387.30807	214.52074	-381.17242	396.87317	159.91196	-376.27847	322.55984	149.87102	-409.20468	58.60135	171.39264	-417.41425	33.93255	164.43604	-405.94476	37.62113	99.84180	-442.71869	54.73888	128.28496	-465.88614	39.93424	126.95022	-445.41940	17.74749	121.69860	-322.68674	10.37805	194.16187	-303.60327	64.18362	116.90728	-287.48959	14.53638	199.40240	-253.30597	38.34582	160.06812 
7	0.060	-696.47662	886.38568	168.43765	-705.25879	894.41760	73.26138	-499.18640	851.91675	212.90541	-517.64288	839.78522	-22.55861	-496.03717	552.68945	251.39027	-435.48816	430.14615	218.49084	-428.28836	389.74023	216.56969	-368.33878	396.65085	160.72513	-365.89651	321.56393	150.53023	-409.62564	59.85503	171.44415	-416.37799	34.38600	164.19873	-405.19150	37.18571	100.39738	-441.19995	55.76310	128.58705	-464.70197	41.49978	127.29922	-445.14658	18.35665	121.97829	-322.55774	9.02022	194.91884	-301.99683	62.54788	116.95899	-286.92355	13.05528	200.38463	-251.64175	35.61998	160.17667 
8	0.070	-681.53369	888.10736	167.22430	-689.77966	893.88019	71.82761	-484.40570	854.81750	214.60835	-501.15234	840.12067	-19.35370	-480.14664	555.49786	253.57274	-419.22595	432.39737	220.05225	-413.03070	391.38541	218.21393	-356.72577	396.27951	161.26376	-356.67935	320.35468	151.35616	-406.26038	58.74799	171.47061	-415.83752	34.39699	164.26067	-404.96899	37.14388	100.41733	-440.49200	56.30517	128.52693	-464.21600	42.12537	127.36237	-445.43787	18.63756	122.29845	-322.57782	8.54016	195.25613	-301.64743	61.48797	116.44391	-286.58994	12.61003	200.81107	-251.11920	34.46451	159.59235 
9	0.080	-666.97583	889.68750	165.50958	-674.75940	893.31665	70.03937	-470.17007	857.56079	216.50560	-484.46072	840.34497	-16.68389	-465.40524	558.41443	254.79498	-405.17252	433.26169	221.40504	-400.17001	391.84290	219.14589	-346.40118	395.72354	161.57715	-348.52982	319.06784	152.30783	-404.95389	58.56451	171.45667	-415.59113	34.96141	163.73772	-404.83292	37.19683	100.42788	-439.93094	56.78076	128.63913	-463.99051	42.53286	127.52451	-445.48215	18.74624	122.42963	-322.60242	8.20816	195.49445	-301.34109	60.86436	116.21542	-286.35410	12.43750	201.28676	-250.77338	34.06394	159.06950 
10	0.090	-653.01892	891.01001	163.66612	-660.02551	892.74164	68.12920	-456.37433	860.01715	218.59891	-469.06808	839.98633	-14.25725	-451.53577	560.96289	256.72086	-393.93137	432.74799	222.89413	-389.94122	391.13049	220.21625	-337.24628	394.79459	162.34079	-341.70938	317.60410	153.29355	-404.31152	58.47707	171.61732	-415.51587	35.05976	163.61719	-404.28284	36.98746	100.76872	-439.53018	57.26180	128.90930	-463.80661	43.11176	127.50855	-445.34009	18.71836	122.61629	-322.65570	7.87513	195.73886	-301.01801	60.59453	116.49257	-286.51102	12.04761	201.45992	-250.70024	33.66499	159.38158 
11	0.100	-639.46661	892.22351	161.95901	-645.55048	892.31580	66.35417	-443.05533	862.30084	220.84956	-453.84216	839.55884	-11.98470	-438.16345	562.96985	258.99826	-385.92017	431.14221	223.83559	-382.94116	389.78671	221.91148	-329.38705	393.26645	163.89774	-335.89194	315.87842	154.27409	-404.07825	58.31616	171.75821	-415.37808	35.16842	163.75392	-403.30103	36.53757	101.31596	-439.24219	57.60617	129.17468	-463.64087	43.83411	127.29487	-444.91754	18.42847	123.03544	-322.65765	7.59387	195.92007	-301.00900	60.39836	116.62701	-286.23669	12.11503	202.06090	-250.58153	33.47638	159.22916 
12	0.110	-626.06976	893.44287	160.52127	-631.30139	892.18140	64.99280	-429.93353	864.38068	223.32823	-438.82550	839.38599	-10.06957	-425.98505	564.87994	260.95343	-380.16760	429.69196	225.02733	-378.38483	388.54089	223.57445	-322.76819	391.25760	166.04877	-330.76013	313.93457	155.46802	-403.95493	58.22181	171.93600	-415.34430	35.18364	163.88516	-403.10538	36.48085	101.52383	-439.03754	57.87771	129.46504	-463.66251	44.18584	127.40698	-444.87436	18.37414	123.20851	-322.64191	7.34621	196.06847	-300.98007	60.19661	116.77000	-286.19516	12.04937	202.29456	-250.59247	33.34909	159.15059 
13	0.120	-612.75446	894.84119	159.54453	-617.18677	892.59314	64.18732	-416.98105	866.16327	226.08635	-424.14810	839.56622	-8.39219	-416.85767	566.21362	262.24496	-375.74960	429.03290	226.61131	-375.14053	387.64316	224.43527	-317.21429	389.38455	168.01624	-326.34222	312.14828	156.65666	-403.85574	58.15903	172.04230	-415.30783	35.18867	163.93620	-403.07590	36.53400	101.61253	-438.87912	58.14478	129.64001	-463.70752	44.45850	127.48679	-444.94409	18.37892	123.26260	-322.66336	7.14660	196.16249	-300.93793	60.03976	116.89063	-286.21191	11.96062	202.41559	-250.61667	33.32945	159.12051 
